# xmcd
#
# Track frame offsets:
#	150
#	25006
#	51165
#	75159
#	98297
#	122123
#	142631
#	165954
#	192610
#	219788
#
# Disc length: 3251 seconds
#
# Revision: 2
# Processed by: cddbd v1.5.2PL0 Copyright (c) Steve Scherf et al.
# Submitted via: EasyCDDAExtractor 16.0.9.1
#
DISCID=690cb10a
DTITLE=Various Artist - Europop - The Italian Connection
DYEAR=2000
DGENRE=Euro-House
TTITLE0=Heartclub feat. Ian Lex - Don't Go Breaking My Heart
TTITLE1=Radiorama - Like An Angel (Guitar Version)
TTITLE2=Alisha - I'm Alive (Main Vocal Mix)
TTITLE3=Kikka - Walking In Memphis (Remix '96)
TTITLE4=DJ Space'C - Stop (Factory Team Remix)
TTITLE5=SL Line - Say It Once (Extended Mix)
TTITLE6=Asya - I'm Not Scared
TTITLE7=Morgana - Can I Help You Baby (Eurojam Version)
TTITLE8=DJ Space'C feat. Anne - I Need You (Club Mix)
TTITLE9=Kate's Project - No More I Love You's
EXTD=
EXTT0=
EXTT1=
EXTT2=
EXTT3=
EXTT4=
EXTT5=
EXTT6=
EXTT7=
EXTT8=
EXTT9=
PLAYORDER=
